<svg height="504pt" viewBox="-31 0 504 504" width="504pt" xmlns="http://www.w3.org/2000/svg"><path d="m273.3125 62.125v-58.125h-166.625v58.125h-38.75v356.5h244.125v-356.5zm0 0" fill="#7bac51"/><path d="m159 317.875h62v100.75h-62zm0 0" fill="#ff4397"/><path d="m211.3125 317.875h9.6875v100.75h-9.6875zm0 0" fill="#e12579"/><path d="m159 317.875h9.6875v100.75h-9.6875zm0 0" fill="#ff61b5"/><path d="m292.6875 62.125h19.375v356.5h-19.375zm0 0" fill="#5d8e33"/><path d="m211.3125 116.375h62v62h-62zm0 0" fill="#f4efed"/><path d="m126.0625 4h-19.375v58.125h9.6875c5.347656 0 9.6875-4.335938 9.6875-9.6875zm0 0" fill="#99ca6f"/><path d="m67.9375 62.125h19.375v356.5h-19.375zm0 0" fill="#99ca6f"/><path d="m273.3125 62.125v-58.125h-19.375v48.4375c0 5.351562 4.335938 9.6875 9.6875 9.6875zm0 0" fill="#5d8e33"/><path d="m312.0625 422.625h-244.125c-2.207031 0-4-1.789062-4-4v-356.5c0-2.207031 1.792969-4 4-4h34.75v-54.125c0-2.210938 1.792969-4 4-4h166.625c2.210938 0 4 1.789062 4 4v54.125h34.75c2.210938 0 4 1.792969 4 4v356.5c0 2.210938-1.789062 4-4 4zm-240.125-8h236.125v-348.5h-34.75c-2.207031 0-4-1.789062-4-4v-54.125h-158.625v54.125c0 2.210938-1.792969 4-4 4h-34.75zm0 0" fill="#690589"/><path d="m122.1875 66.125c-2.207031 0-4-1.789062-4-4v-29.0625c0-2.207031 1.792969-4 4-4s4 1.792969 4 4v29.0625c0 2.210938-1.792969 4-4 4zm0 0" fill="#690589"/><path d="m364.375 190c-6.417969 0-11.625 5.203125-11.625 11.625v167.246094h23.25v-167.246094c0-6.421875-5.203125-11.625-11.625-11.625zm0 0" fill="#ff4397"/><path d="m376 372.871094h-23.25c-2.210938 0-4-1.792969-4-4v-167.246094c0-8.617188 7.011719-15.628906 15.625-15.628906 8.617188 0 15.628906 7.011718 15.628906 15.628906v167.246094c-.003906 2.207031-1.792968 4-4.003906 4zm-19.25-8h15.25v-163.246094c0-4.203125-3.421875-7.628906-7.625-7.628906-4.207031 0-7.628906 3.421875-7.628906 7.628906v163.246094zm0 0" fill="#690589"/><path d="m388 352.75h-47.25c-27.613281 0-50 22.386719-50 50v4.25h147.25v-4.25c0-27.613281-22.386719-50-50-50zm0 0" fill="#7bac51"/><path d="m290.75 407h147.25v93h-147.25zm0 0" fill="#fcc24c"/><path d="m418.625 407h19.378906v93h-19.378906zm0 0" fill="#dea42e"/><path d="m290.75 407h19.375v93h-19.375zm0 0" fill="#fce06a"/><path d="m418.625 407v-5.8125c0-26.75-21.683594-48.4375-48.4375-48.4375h19.375c26.753906 0 48.441406 21.6875 48.441406 48.4375v5.8125zm0 0" fill="#5d8e33"/><path d="m310.125 407v-5.8125c0-26.75 21.6875-48.4375 48.4375-48.4375h-19.375c-26.75 0-48.4375 21.6875-48.4375 48.4375v5.8125zm0 0" fill="#99ca6f"/><g fill="#690589"><path d="m438 504h-147.25c-2.210938 0-4-1.789062-4-4v-93c0-2.210938 1.789062-4 4-4h147.25c2.210938 0 4 1.789062 4 4v93c0 2.210938-1.789062 4-4 4zm-143.25-8h139.25v-85h-139.25zm0 0"/><path d="m438 411h-147.25c-2.210938 0-4-1.789062-4-4v-4.25c0-29.777344 24.222656-54 54-54h47.25c29.777344 0 54 24.222656 54 54v4.25c0 2.210938-1.789062 4-4 4zm-143.25-8h139.25v-.25c0-25.363281-20.632812-46-46-46h-47.25c-25.367188 0-46 20.636719-46 46zm0 0"/><path d="m407.464844 504c-2.210938 0-4-1.789062-4-4v-55.515625c0-2.210937 1.789062-4 4-4 2.207031 0 4 1.789063 4 4v55.515625c0 2.210938-1.789063 4-4 4zm0 0"/><path d="m364.375 504c-2.210938 0-4-1.789062-4-4v-55.515625c0-2.210937 1.789062-4 4-4s4 1.789063 4 4v55.515625c0 2.210938-1.789062 4-4 4zm0 0"/><path d="m321.285156 504c-2.207031 0-4-1.789062-4-4v-55.515625c0-2.210937 1.792969-4 4-4 2.210938 0 4 1.789063 4 4v55.515625c0 2.210938-1.792968 4-4 4zm0 0"/></g><path d="m106.6875 217.125h62v62h-62zm0 0" fill="#f4efed"/><path d="m211.3125 217.125h62v62h-62zm0 0" fill="#f4efed"/><path d="m106.6875 116.375h62v62h-62zm0 0" fill="#f4efed"/><path d="m221 422.625h-62c-2.210938 0-4-1.789062-4-4v-100.75c0-2.210938 1.789062-4 4-4h62c2.210938 0 4 1.789062 4 4v100.75c0 2.210938-1.789062 4-4 4zm-58-8h54v-92.75h-54zm0 0" fill="#690589"/><path d="m168.6875 283.125h-62c-2.207031 0-4-1.789062-4-4v-62c0-2.207031 1.792969-4 4-4h62c2.207031 0 4 1.792969 4 4v62c0 2.210938-1.792969 4-4 4zm-58-8h54v-54h-54zm0 0" fill="#690589"/><path d="m273.3125 283.125h-62c-2.207031 0-4-1.789062-4-4v-62c0-2.207031 1.792969-4 4-4h62c2.207031 0 4 1.792969 4 4v62c0 2.210938-1.789062 4-4 4zm-58-8h54v-54h-54zm0 0" fill="#690589"/><path d="m168.6875 182.375h-62c-2.207031 0-4-1.789062-4-4v-62c0-2.207031 1.792969-4 4-4h62c2.207031 0 4 1.792969 4 4v62c0 2.210938-1.792969 4-4 4zm-58-8h54v-54h-54zm0 0" fill="#690589"/><path d="m273.3125 182.375h-62c-2.207031 0-4-1.789062-4-4v-62c0-2.207031 1.792969-4 4-4h62c2.207031 0 4 1.792969 4 4v62c0 2.210938-1.789062 4-4 4zm-58-8h54v-54h-54zm0 0" fill="#690589"/><path d="m51.207031 73.042969 22.542969 12.332031-22.542969 12.332031-12.332031 22.542969-12.332031-22.542969-22.542969-12.332031 22.542969-12.332031 12.332031-22.542969zm0 0" fill="#fff"/><path d="m101.34375 135.28125 15.03125 8.21875-15.03125 8.21875-8.21875 15.03125-8.222656-15.03125-15.027344-8.21875 15.027344-8.21875 8.222656-15.03125zm0 0" fill="#fff"/><path d="m38.875 124.25c-1.464844 0-2.808594-.796875-3.511719-2.082031l-11.765625-21.515625-21.519531-11.769532c-1.28125-.699218-2.078125-2.046874-2.078125-3.507812 0-1.464844.796875-2.808594 2.078125-3.511719l21.519531-11.765625 11.769532-21.519531c.699218-1.28125 2.046874-2.082031 3.507812-2.082031 1.464844 0 2.808594.800781 3.511719 2.082031l11.765625 21.519531 21.519531 11.765625c1.285156.703125 2.082031 2.046875 2.082031 3.511719 0 1.460938-.796875 2.808594-2.082031 3.507812l-21.519531 11.769532-11.765625 21.515625c-.703125 1.285156-2.046875 2.082031-3.511719 2.082031zm-26.539062-38.875 16.128906 8.820312c.667968.367188 1.222656.917969 1.589844 1.589844l8.820312 16.128906 8.820312-16.128906c.367188-.671875.917969-1.222656 1.589844-1.589844l16.125-8.820312-16.125-8.820312c-.671875-.367188-1.222656-.917969-1.589844-1.589844l-8.820312-16.125-8.820312 16.125c-.367188.671875-.921876 1.226562-1.589844 1.589844zm0 0" fill="#690589"/><path d="m93.125 170.75c-1.464844 0-2.808594-.796875-3.511719-2.078125l-7.65625-14.003906-14.003906-7.65625c-1.28125-.703125-2.078125-2.050781-2.078125-3.511719s.796875-2.808594 2.078125-3.511719l14.003906-7.65625 7.65625-14.003906c.703125-1.28125 2.046875-2.078125 3.511719-2.078125 1.460938 0 2.808594.796875 3.507812 2.078125l7.660157 14.003906 14 7.65625c1.285156.703125 2.082031 2.050781 2.082031 3.511719s-.796875 2.808594-2.082031 3.511719l-14 7.65625-7.660157 14.003906c-.699218 1.28125-2.042968 2.078125-3.507812 2.078125zm-14.914062-27.25 8.613281 4.710938c.667969.367187 1.222656.917968 1.589843 1.589843l4.710938 8.613281 4.710938-8.613281c.367187-.671875.921874-1.226562 1.589843-1.589843l8.613281-4.710938-8.613281-4.710938c-.667969-.367187-1.222656-.917968-1.589843-1.589843l-4.710938-8.613281-4.710938 8.613281c-.367187.671875-.921874 1.226562-1.589843 1.589843zm0 0" fill="#690589"/></svg>